<svg xmlns="http://www.w3.org/2000/svg" width="288" height="278" viewBox="0 0 288 278" version="1.1"><path d="M 122 18.686 C 117.226 20.516, 117 21.430, 117 38.947 L 117 55.584 111.250 58.227 C 108.088 59.680, 102.709 62.675, 99.297 64.882 L 93.094 68.895 79.797 61.552 C 62.908 52.226, 62.874 52.216, 59.144 55.704 C 54.752 59.809, 31 100.720, 31 104.179 C 31 108.112, 32.766 109.561, 47.524 117.736 L 60.500 124.924 60.397 138.712 L 60.293 152.500 47.397 159.700 C 32.968 167.755, 30.569 169.958, 31.303 174.481 C 31.872 177.986, 56.204 219.641, 59.207 222.250 C 60.315 223.212, 62.184 223.992, 63.361 223.982 C 64.537 223.972, 71.789 220.444, 79.476 216.143 L 93.453 208.323 99.976 212.810 C 103.564 215.278, 108.862 218.350, 111.750 219.636 L 117 221.975 117 238.931 C 117 255.319, 117.074 255.939, 119.223 257.443 C 122.539 259.766, 175.461 259.766, 178.777 257.443 C 180.925 255.939, 181 255.318, 181 238.956 L 181 222.025 188.250 218.381 C 192.238 216.376, 197.381 213.446, 199.680 211.868 C 201.979 210.291, 204.287 209, 204.807 209 C 205.328 209, 211.405 212.155, 218.312 216.012 C 232.745 224.071, 235.645 224.970, 238.691 222.332 C 241.475 219.921, 265.984 178.401, 266.586 175.076 C 267.464 170.221, 264.954 167.783, 251.065 160 L 237.681 152.500 237.684 138.692 L 237.688 124.884 250.992 117.430 C 265.129 109.510, 266.918 107.998, 266.968 103.929 C 267.002 101.175, 243.489 60.258, 239.498 56.125 C 238.237 54.819, 236.064 53.750, 234.670 53.750 C 232.584 53.750, 222.617 58.776, 207 67.704 C 204.634 69.056, 204.063 68.840, 196.321 63.657 C 191.823 60.645, 186.535 57.600, 184.571 56.890 L 181 55.598 181 38.954 C 181 23.308, 180.874 22.196, 178.897 20.405 C 176.952 18.643, 174.792 18.485, 150.147 18.305 C 135.491 18.198, 122.825 18.370, 122 18.686 M 131 48.066 C 131 56.352, 130.552 63.969, 130.004 64.992 C 129.456 66.016, 126.419 67.815, 123.254 68.990 C 115.425 71.898, 107.463 76.415, 101.672 81.233 C 99.017 83.442, 95.867 85.248, 94.672 85.246 C 93.478 85.244, 86.713 82.038, 79.640 78.121 C 72.567 74.205, 66.492 71.018, 66.140 71.039 C 65.788 71.061, 61.596 77.804, 56.825 86.024 L 48.150 100.969 60.511 108.085 C 67.310 111.999, 73.600 116.006, 74.490 116.989 C 76.419 119.121, 76.466 120.247, 75.026 130 C 73.949 137.302, 74.460 149.422, 76.020 153.543 C 77.760 158.142, 74.873 161.148, 61.205 168.968 C 54.025 173.075, 48.280 176.675, 48.438 176.968 C 48.596 177.261, 52.622 184.093, 57.384 192.150 L 66.044 206.801 79.451 199.400 C 86.826 195.330, 93.678 192.002, 94.680 192.004 C 95.681 192.007, 98.975 193.886, 102 196.180 C 108.969 201.466, 117.437 206.393, 122.188 207.925 C 124.216 208.579, 127.028 210.021, 128.438 211.130 C 130.996 213.142, 131 213.171, 131 229.073 L 131 245 149 245 L 167 245 167 229.073 L 167 213.145 169.635 211.073 C 171.084 209.933, 172.784 209, 173.413 209 C 175.965 209, 188.926 201.986, 195.303 197.155 C 199.045 194.320, 203.078 192, 204.265 192 C 205.453 192, 211.889 195.150, 218.568 199 C 225.248 202.850, 231.115 205.997, 231.606 205.994 C 232.098 205.991, 236.406 199.374, 241.181 191.290 L 249.861 176.592 243.681 172.938 C 240.281 170.929, 234.213 167.387, 230.197 165.067 C 222.498 160.621, 220.389 157.744, 221.901 153.750 C 223.532 149.442, 224.074 137.452, 222.974 130 C 221.534 120.247, 221.581 119.121, 223.510 116.989 C 224.400 116.006, 230.690 111.999, 237.489 108.085 L 249.850 100.969 241.175 86.024 C 236.404 77.804, 232.212 71.061, 231.860 71.039 C 231.508 71.018, 225.433 74.205, 218.360 78.121 C 211.287 82.038, 204.486 85.244, 203.246 85.246 C 202.006 85.248, 199.531 84.051, 197.746 82.585 C 191.033 77.075, 182.676 72.051, 175.937 69.476 C 172.106 68.012, 168.527 65.985, 167.985 64.973 C 167.443 63.960, 167 56.352, 167 48.066 L 167 33 149 33 L 131 33 131 48.066 M 142.291 94.138 C 125.897 96.070, 110.807 108.950, 105.862 125.230 C 102.738 135.514, 103.518 148.236, 107.838 157.467 C 111.734 165.794, 121.193 175.515, 129.181 179.402 C 141.054 185.181, 156.946 185.181, 168.819 179.402 C 176.807 175.515, 186.266 165.794, 190.162 157.467 C 192.749 151.938, 193.374 149.179, 193.776 141.501 C 194.416 129.249, 191.949 120.681, 185.231 111.835 C 174.879 98.203, 159.962 92.055, 142.291 94.138 M 138.692 109.972 C 124.814 115.395, 116.328 129.910, 118.951 143.739 C 120.358 151.162, 123.146 156.047, 128.956 161.271 C 134.867 166.585, 141.130 169, 149 169 C 156.870 169, 163.133 166.585, 169.044 161.271 C 180.705 150.786, 182.874 135.214, 174.466 122.337 C 166.464 110.082, 151.580 104.937, 138.692 109.972" stroke="none" fill="#f4c45d" fill-rule="evenodd"/></svg>