<svg xmlns="http://www.w3.org/2000/svg" width="288" height="278" viewBox="0 0 288 278" version="1.1"><path d="M 187.929 21.310 C 177.452 24.266, 167.042 33.449, 164.756 41.750 L 163.585 46 158.543 46.012 C 148.169 46.036, 135.989 51.050, 128.750 58.276 C 126.412 60.609, 120.926 66.952, 116.557 72.370 C 107.425 83.696, 98.057 92.483, 85.391 101.604 C 74.442 109.488, 54.966 119.553, 49.267 120.271 C 43.888 120.950, 37.469 124.050, 32.319 128.459 C 21.991 137.300, 23.244 157.211, 35.297 175.763 C 48.159 195.562, 71.281 216.017, 97.266 230.585 C 105.048 234.949, 106.145 235.916, 107.043 239.208 C 109.249 247.297, 119.165 256.784, 128.226 259.474 C 137.858 262.335, 146.343 261.339, 154.834 256.350 C 159.202 253.785, 160.269 253.606, 171.520 253.555 C 183.008 253.502, 183.834 253.356, 190.143 250.250 C 193.827 248.437, 198.511 245.084, 200.741 242.665 C 204.102 239.018, 204.926 237.244, 205.928 231.494 C 207.177 224.318, 206.834 220.078, 204.271 211.011 C 203.069 206.758, 202.852 202.706, 203.307 193.011 C 204.349 170.821, 208.392 153.891, 217.635 133.013 C 220.675 126.146, 223.857 117.821, 224.705 114.513 C 226.863 106.099, 226.021 94.331, 222.667 86.028 L 220.087 79.640 222.692 77.070 C 224.125 75.657, 226.460 72.025, 227.881 69 C 231.581 61.124, 231.537 48.983, 227.778 40.804 C 224.510 33.694, 217.491 26.570, 210.696 23.468 C 204.229 20.515, 194.136 19.559, 187.929 21.310 M 192.365 36.992 C 188.143 37.946, 183.297 41.526, 181.485 45.029 C 180.668 46.609, 180 48.077, 180 48.292 C 180 48.507, 181.883 49.248, 184.184 49.937 C 190.390 51.796, 198.442 56.637, 204.428 62.108 C 209.381 66.635, 209.833 66.841, 211.272 65.227 C 212.120 64.277, 213.323 61.587, 213.946 59.250 C 217.336 46.515, 205.275 34.076, 192.365 36.992 M 150.216 63.891 C 144.052 66.020, 142.076 67.719, 133.224 78.500 C 120.300 94.241, 105.638 107.896, 91.568 117.293 C 87.125 120.261, 85.150 122.111, 86.068 122.446 C 86.856 122.734, 91.550 124.106, 96.500 125.495 C 107.470 128.573, 135.003 141.892, 148 150.410 C 159.493 157.941, 175.681 171.642, 182.500 179.610 L 187.500 185.452 188.229 177.976 C 190.033 159.455, 195.950 139.006, 204.671 121.148 C 210.002 110.230, 210.200 109.538, 209.833 103.047 C 208.352 76.842, 175.393 55.194, 150.216 63.891 M 49.500 136.506 C 39.770 139.957, 38.723 147.850, 46.050 162.508 C 49.523 169.455, 67.160 188.751, 78.347 197.844 C 89.065 206.554, 106.512 217.927, 107.466 216.824 C 107.620 216.646, 108.445 215.123, 109.300 213.440 C 113.422 205.326, 124.745 197.748, 134.612 196.498 L 139.724 195.850 143.523 182.920 C 145.613 175.808, 147.138 169.853, 146.912 169.686 C 143.012 166.811, 135.041 161.414, 132.630 160.017 C 116.787 150.835, 112.566 148.586, 106.020 145.835 C 84.986 136.998, 59.825 132.845, 49.500 136.506 M 158.635 189.106 C 157.251 193.723, 155.993 198.175, 155.839 199 C 155.685 199.825, 157.857 202.840, 160.666 205.700 C 168.393 213.568, 170.494 218.627, 170.447 229.250 L 170.409 238 173.454 237.994 C 178.493 237.985, 183.920 236.044, 187.268 233.052 C 190.090 230.531, 190.429 229.638, 190.429 224.731 C 190.429 220.461, 189.691 217.814, 187.122 212.867 C 182.955 204.841, 174.876 194.225, 167.138 186.606 L 161.152 180.713 158.635 189.106 M 134.123 212.992 C 129.148 214.181, 125.792 217.022, 123.157 222.274 C 119.842 228.884, 120.808 234.053, 126.408 239.664 C 133.235 246.503, 141.937 246.762, 149.050 240.336 C 155.737 234.294, 156.475 225.688, 150.912 218.615 C 147.141 213.821, 140.276 211.522, 134.123 212.992" stroke="none" fill="#f4c45e" fill-rule="evenodd"/></svg>