<svg xmlns="http://www.w3.org/2000/svg" width="288" height="264" viewBox="0 0 288 264" version="1.1"><path d="M 170.322 37.945 C 167.530 39.648, 166.660 41.378, 163.156 52.192 C 160.963 58.961, 147.640 100.589, 133.549 144.697 C 108.326 223.654, 107.952 224.949, 109.386 228.381 C 112.711 236.340, 125.074 237.336, 129.020 229.963 C 129.589 228.899, 143.109 187.185, 159.063 137.264 L 188.070 46.500 186.448 42.894 C 184.760 39.140, 179.864 35.997, 175.716 36.004 C 174.497 36.006, 172.070 36.880, 170.322 37.945 M 85.500 73.895 C 83.850 74.933, 70.238 88.113, 55.250 103.183 L 28 130.584 28 135.523 L 28 140.462 57.269 169.731 L 86.538 199 90.865 199 C 96.504 199, 100.592 196.095, 102.118 191.002 C 103.011 188.021, 103.008 186.434, 102.107 184.258 C 101.458 182.692, 90.598 171.089, 77.973 158.473 L 55.019 135.535 78.432 112.018 C 98.260 92.102, 101.949 87.936, 102.521 84.820 C 103.370 80.191, 100.915 75.662, 96.393 73.516 C 92.153 71.504, 89.133 71.609, 85.500 73.895 M 199.321 73.613 C 195.272 75.610, 192.623 80.960, 193.535 85.297 C 194.047 87.732, 199.817 94.140, 217.595 112.018 L 240.981 135.535 217.987 158.513 C 193.457 183.025, 191.906 185.156, 193.995 191.484 C 195.642 196.476, 199.298 199, 204.881 199 L 209.492 199 238.746 169.699 L 268 140.399 268 135.490 L 268 130.582 240.250 102.718 C 224.988 87.393, 211.285 74.212, 209.800 73.427 C 206.337 71.597, 203.300 71.651, 199.321 73.613" stroke="none" fill="#f4c45d" fill-rule="evenodd"/></svg>