<svg width="96" height="68" viewBox="0 0 96 68" fill="none" xmlns="http://www.w3.org/2000/svg">
<path d="M47.8125 15.5312C50.375 15.5312 52.75 16.0313 54.9375 17.0312C57.1875 18.0312 59.125 19.375 60.75 21.0625C62.4375 22.6875 63.75 24.625 64.6875 26.875C65.6875 29.125 66.1875 31.5312 66.1875 34.0938C66.1875 36.5938 65.7188 38.9375 64.7812 41.125C63.8438 43.3125 62.5625 45.25 60.9375 46.9375C59.3125 48.625 57.4062 49.9688 55.2188 50.9688C53.0312 51.9688 50.6875 52.4688 48.1875 52.4688H48C45.5 52.4062 43.125 51.9062 40.875 50.9688C38.6875 49.9688 36.7812 48.6562 35.1562 47.0312C33.5312 45.3438 32.2188 43.375 31.2188 41.125C30.2812 38.875 29.8125 36.5 29.8125 34C29.8125 31.5 30.2812 29.125 31.2188 26.875C32.1562 24.6875 33.4375 22.7812 35.0625 21.1562C36.6875 19.4688 38.5938 18.125 40.7812 17.125C42.9688 16.125 45.3125 15.5937 47.8125 15.5312ZM36.2812 34.0938C36.3438 37.4062 37.5312 40.2188 39.8438 42.5312C42.2188 44.8438 45.0312 46 48.2812 46C51.5938 46 54.4375 44.8438 56.8125 42.5312C59.1875 40.1562 60.375 37.3125 60.375 34C60.375 30.6875 59.1875 27.875 56.8125 25.5625C54.4375 23.1875 51.5938 22 48.2812 22C48.2188 22 48.1562 22 48.0938 22C48.0938 22 48.0625 22 48 22V21.1562L47.9062 22C46.2812 22 44.75 22.3438 43.3125 23.0312C41.9375 23.6562 40.7188 24.5 39.6562 25.5625C38.6562 26.625 37.8438 27.875 37.2188 29.3125C36.5938 30.75 36.2812 32.2812 36.2812 33.9062C36.2812 33.9688 36.2812 34.0312 36.2812 34.0938ZM47.7188 0.25C54.4062 0.25 60.6875 1.53125 66.5625 4.09375C72.4375 6.71875 77.5312 9.8125 81.8438 13.375C86.2188 16.9375 89.6562 20.625 92.1562 24.4375C94.7188 28.1875 96 31.2188 96 33.5312C96 36.0938 94.6875 39.3125 92.0625 43.1875C89.5 47 86.125 50.6562 81.9375 54.1562H82.0312C79.7812 56.1562 77.375 57.9375 74.8125 59.5C72.1875 61.125 69.4375 62.5312 66.5625 63.7188C63.75 64.9062 60.8125 65.8438 57.75 66.5312C54.6875 67.2188 51.5312 67.625 48.2812 67.75H47.9062C41.2812 67.75 35.0625 66.4688 29.25 63.9062C23.4375 61.2812 18.375 58.1875 14.0625 54.625C9.75 51.0625 6.34375 47.375 3.84375 43.5625C1.28125 39.8125 0 36.7812 0 34.4688C0 32.1562 1.25 29.0625 3.75 25.1875C6.25 21.375 9.65625 17.625 13.9688 13.9375C18.3438 10.25 23.4062 7.0625 29.1562 4.375C34.9688 1.6875 41.1562 0.3125 47.7188 0.25ZM6.46875 34.375C6.46875 35.6875 7.5625 37.8438 9.75 40.8438C11.9375 43.7812 14.9062 46.7812 18.6562 49.8438C22.4688 52.8438 26.875 55.5 31.875 57.8125C36.875 60.125 42.2188 61.2812 47.9062 61.2812C53.7188 61.2188 59.1562 60 64.2188 57.625C69.2812 55.25 73.6875 52.5 77.4375 49.375C81.1875 46.25 84.1562 43.1875 86.3438 40.1875C88.4688 37.125 89.5312 34.9375 89.5312 33.625C89.5312 32.3125 88.4375 30.1562 86.25 27.1562C84.0625 24.2188 81.0625 21.25 77.25 18.25C73.5 15.1875 69.125 12.5 64.125 10.1875C59.125 7.875 53.7812 6.71875 48.0938 6.71875V5.875L47.7188 6.71875C42.0312 6.78125 36.6875 8 31.6875 10.375C26.625 12.75 22.2188 15.5 18.4688 18.625C14.7812 21.75 11.8438 24.8125 9.65625 27.8125C7.53125 30.875 6.46875 33.0625 6.46875 34.375Z" fill="#F7C15C"/>
</svg>
