<svg xmlns="http://www.w3.org/2000/svg" width="288" height="264" viewBox="0 0 288 264" version="1.1"><path d="M 145.340 43.998 C 143.824 44.609, 140.422 50.552, 133.916 63.959 C 126.965 78.280, 124.132 83.166, 122.575 83.514 C 121.434 83.769, 111.804 85.327, 101.176 86.976 C 90.548 88.625, 81.435 90.231, 80.926 90.546 C 80.417 90.861, 80 92.747, 80 94.738 C 80 98.064, 81.249 99.628, 95.318 113.929 L 110.636 129.500 107.397 147.500 C 102.916 172.406, 103.049 176.009, 108.450 175.995 C 109.577 175.992, 118.600 171.722, 128.500 166.506 C 138.400 161.290, 147.124 157.018, 147.887 157.011 C 148.650 157.005, 157.487 161.275, 167.526 166.500 C 177.564 171.725, 186.637 176, 187.688 176 C 192.963 176, 193.094 172.039, 188.628 147.500 L 185.353 129.500 200.676 113.929 C 214.752 99.627, 216 98.064, 216 94.738 C 216 92.747, 215.583 90.861, 215.074 90.546 C 214.565 90.231, 205.452 88.625, 194.824 86.976 C 184.196 85.327, 174.566 83.769, 173.425 83.514 C 171.868 83.166, 169.035 78.281, 162.088 63.967 C 154.825 49.001, 152.292 44.681, 150.348 43.942 C 148.985 43.424, 147.787 43.029, 147.685 43.063 C 147.583 43.098, 146.528 43.519, 145.340 43.998 M 140.226 78.525 C 135.212 88.582, 132.294 93.332, 130.742 93.967 C 128.744 94.783, 101.982 99, 98.796 99 C 98.100 99, 103.133 104.617, 109.982 111.482 L 122.433 123.963 119.635 141.066 C 118.095 150.473, 117.025 158.358, 117.255 158.589 C 117.486 158.820, 123.908 155.631, 131.525 151.504 C 139.143 147.377, 146.557 144, 148 144 C 149.443 144, 156.857 147.377, 164.475 151.504 C 172.092 155.631, 178.514 158.820, 178.745 158.589 C 178.975 158.358, 177.905 150.473, 176.365 141.066 L 173.567 123.963 186.018 111.482 C 192.867 104.617, 197.900 99, 197.204 99 C 194.018 99, 167.256 94.783, 165.258 93.967 C 163.706 93.332, 160.788 88.582, 155.774 78.525 C 151.791 70.536, 148.293 64, 148 64 C 147.707 64, 144.209 70.536, 140.226 78.525 M 51.309 134.250 C 50.864 134.938, 49.823 140.663, 48.996 146.973 L 47.491 158.446 39.385 162.973 C 28.745 168.915, 28 169.613, 28 173.653 C 28 176.983, 28.236 177.177, 38.229 182.064 C 43.854 184.815, 48.749 187.614, 49.105 188.283 C 49.461 188.952, 50.523 193.775, 51.463 199 C 53.297 209.180, 54.880 212, 58.763 212 C 61.163 212, 66.480 207.128, 72.680 199.250 C 75.664 195.458, 76.749 195.350, 89.481 197.577 C 98.418 199.140, 98.470 199.137, 100.231 196.963 C 102.866 193.710, 102.486 191.959, 96.865 181.439 L 91.730 171.829 95.865 162.339 C 100.524 151.648, 100.867 149.094, 97.994 146.495 C 96.056 144.741, 95.629 144.746, 85.244 146.655 L 74.500 148.630 66.372 140.815 C 59.837 134.531, 57.644 133, 55.181 133 C 53.496 133, 51.754 133.563, 51.309 134.250 M 229.628 140.815 L 221.500 148.630 210.756 146.655 C 200.371 144.746, 199.944 144.741, 198.006 146.495 C 195.135 149.093, 195.476 151.648, 200.115 162.293 L 204.230 171.737 199.115 181.571 C 196.302 186.980, 194 192.164, 194 193.092 C 194 194.019, 194.787 195.704, 195.750 196.835 C 197.483 198.872, 197.607 198.875, 208.735 197.229 L 219.969 195.566 225.235 201.529 C 233.558 210.956, 234.761 212, 237.300 212 C 241.070 212, 242.689 209.169, 244.452 199.500 C 245.355 194.550, 246.312 189.762, 246.579 188.859 C 246.847 187.956, 250.988 185.336, 255.783 183.036 C 266.193 178.042, 268 176.553, 268 172.967 C 268 169.663, 266.959 168.749, 256.615 162.973 L 248.509 158.446 247.004 146.973 C 246.177 140.663, 245.136 134.938, 244.691 134.250 C 244.246 133.563, 242.504 133, 240.819 133 C 238.356 133, 236.163 134.531, 229.628 140.815 M 59.630 152.703 C 59.284 153.050, 59 155.889, 59 159.012 C 59 165.443, 58.321 166.353, 50.642 170.207 L 45.785 172.645 51.827 175.265 C 58.635 178.218, 59.599 179.495, 60.574 186.849 C 60.953 189.707, 61.590 192.246, 61.988 192.493 C 62.387 192.739, 64.171 191.126, 65.953 188.909 C 70.067 183.789, 72.313 182.966, 78.904 184.164 C 81.820 184.694, 84.414 184.919, 84.670 184.663 C 84.925 184.408, 83.979 181.919, 82.567 179.133 C 79.459 172.999, 79.336 169.222, 82.070 163.863 C 83.208 161.632, 83.914 159.581, 83.639 159.305 C 83.363 159.030, 80.835 159.299, 78.020 159.902 C 70.845 161.441, 71.024 161.489, 65.363 156.536 C 62.557 154.081, 59.977 152.356, 59.630 152.703 M 233.960 153.549 C 233.263 154.389, 230.941 156.463, 228.800 158.159 C 224.928 161.225, 224.874 161.235, 218.856 160.051 C 215.528 159.397, 212.593 159.074, 212.333 159.334 C 212.073 159.594, 212.792 161.632, 213.930 163.863 C 216.664 169.222, 216.541 172.999, 213.433 179.133 C 212.021 181.919, 211.090 184.423, 211.364 184.697 C 211.638 184.971, 214.132 184.708, 216.907 184.113 C 223.270 182.749, 225.854 183.692, 230.047 188.909 C 231.829 191.126, 233.613 192.739, 234.012 192.493 C 234.410 192.246, 235.047 189.707, 235.426 186.849 C 236.401 179.494, 237.365 178.218, 244.177 175.264 L 250.222 172.642 244.647 169.824 C 238.091 166.508, 237 164.839, 237 158.125 C 237 152.704, 235.960 151.139, 233.960 153.549" stroke="none" fill="#f4c45e" fill-rule="evenodd"/></svg>