<svg xmlns="http://www.w3.org/2000/svg" width="288" height="264" viewBox="0 0 288 264" version="1.1"><path d="M 139 11.761 C 137.625 11.986, 121.200 19.507, 102.500 28.474 C 48.114 54.553, 47.696 54.771, 45.249 58.342 C 43.629 60.705, 40.228 74.115, 32.520 108.532 C 26.734 134.362, 22 157.392, 22 159.709 C 22 163.181, 22.754 164.853, 26.284 169.211 C 82.022 238.029, 86.022 242.783, 89.622 244.491 C 93.134 246.157, 96.600 246.225, 143.364 245.534 C 176.479 245.046, 194.178 244.420, 195.800 243.681 C 197.852 242.747, 209.658 228.546, 257.716 169.211 C 261.246 164.853, 262 163.181, 262 159.709 C 262 154.476, 241.621 63.101, 239.568 59.132 C 238.746 57.542, 236.594 55.388, 234.787 54.345 C 226.575 49.608, 147.173 12.186, 144.500 11.793 C 142.850 11.550, 140.375 11.536, 139 11.761 M 138.486 46.044 C 138.129 47.168, 138.146 51.375, 138.522 55.393 C 139.356 64.293, 137.584 69, 133.401 69 C 126.180 69, 108.590 77.105, 99.314 84.706 C 95.138 88.128, 94.754 88.243, 91.130 87.157 C 88.585 86.395, 85.932 84.362, 83.105 81.009 C 78.742 75.835, 74.905 74.495, 72.200 77.200 C 69.694 79.706, 71.086 81.940, 78.250 86.913 C 88.045 93.713, 88.779 95.514, 84.890 103.218 C 80.409 112.094, 78 122.739, 78 133.660 C 78 140.927, 77.694 143, 76.622 143 C 75.865 143, 74.726 143.625, 74.093 144.389 C 73.459 145.152, 70.366 146.070, 67.220 146.429 C 57.886 147.492, 56.122 148.039, 55.478 150.069 C 54.506 153.132, 55.883 156.002, 58.317 155.987 C 59.518 155.979, 63.763 154.932, 67.750 153.660 C 77.369 150.591, 80.554 151.079, 82.077 155.857 C 85.145 165.484, 93.209 176.044, 103.447 183.842 C 109.338 188.329, 109.540 188.632, 108.962 192.103 C 108.364 195.696, 103.862 204.349, 101.988 205.507 C 100.472 206.445, 100.816 211.602, 102.487 212.989 C 103.305 213.668, 105.042 213.955, 106.347 213.628 C 108.224 213.157, 109.301 211.439, 111.497 205.420 C 113.023 201.234, 115.255 196.748, 116.457 195.452 C 118.640 193.097, 118.642 193.096, 124.570 194.757 C 132.575 197, 151.388 197.011, 159.351 194.778 L 165.202 193.137 167.915 195.913 C 169.407 197.440, 171.447 201.346, 172.448 204.594 C 175.127 213.287, 178.788 216.370, 181.934 212.580 C 184.024 210.062, 183.456 207.612, 179.512 202.136 C 177.170 198.884, 175.395 195.100, 175.004 192.527 C 174.372 188.364, 174.443 188.230, 178.715 185.527 C 188.110 179.584, 198.201 166.933, 201.521 156.937 C 203.131 152.091, 203.236 152, 207.259 152 C 209.514 152, 214.450 152.996, 218.229 154.213 C 225.595 156.585, 228.253 156.127, 228.756 152.398 C 229.213 149.007, 227.434 147.896, 219.903 146.867 C 215.832 146.310, 211.150 145.077, 209.500 144.125 C 206.509 142.401, 206.498 142.361, 205.887 130.948 C 205.205 118.238, 202.897 109.782, 197.861 101.548 C 195.350 97.443, 195.070 96.417, 196.228 95.548 C 196.996 94.972, 197.916 93.721, 198.274 92.768 C 198.631 91.815, 202.091 89.006, 205.962 86.525 C 212.985 82.023, 214.386 79.786, 211.800 77.200 C 209.183 74.583, 205.540 75.891, 200.101 81.398 C 192.654 88.939, 190.234 89.241, 183.655 83.455 C 175.469 76.257, 164.967 71.625, 149.877 68.559 C 146.005 67.772, 144.638 63.586, 145.488 55.120 C 146.388 46.154, 145.713 44, 142 44 C 139.993 44, 138.941 44.612, 138.486 46.044 M 130 82.715 C 122.552 84.034, 105.101 94.940, 107.588 96.721 C 108.186 97.149, 113.190 100.763, 118.706 104.750 C 124.223 108.737, 129.176 112, 129.713 112 C 132.776 112, 133.860 108.257, 134.565 95.250 C 135.338 80.960, 135.615 81.721, 130 82.715 M 149.431 95.177 C 150.170 108.822, 151.459 112.805, 154.729 111.550 C 155.824 111.130, 175.175 97.827, 177 96.240 C 179.017 94.486, 160.070 83.843, 152.605 82.536 L 148.710 81.855 149.431 95.177 M 95.954 110.090 C 92.488 116.884, 91.022 123.041, 91.011 130.857 C 91.003 136.327, 91.321 138.095, 92.250 137.750 C 92.938 137.495, 98.450 135.835, 104.500 134.061 C 116.522 130.536, 119.837 128.432, 118.197 125.368 C 117.645 124.337, 112.893 119.538, 107.638 114.705 L 98.083 105.917 95.954 110.090 M 175.041 115.913 C 164.652 125.649, 164.593 125.730, 166.189 128.166 C 167.439 130.073, 170.318 131.357, 179.148 133.945 C 185.392 135.776, 191.129 137.510, 191.898 137.800 C 194.079 138.623, 192.776 121.956, 190.111 114.940 C 186.296 104.900, 186.830 104.865, 175.041 115.913 M 136.068 127.904 C 132.560 132.830, 133.396 136.846, 138.599 140.061 L 142 142.163 145.401 140.061 C 150.604 136.846, 151.440 132.830, 147.932 127.904 C 146.260 125.556, 145.123 125, 142 125 C 138.877 125, 137.740 125.556, 136.068 127.904 M 104.229 147.977 C 98.579 148.930, 93.722 149.945, 93.434 150.233 C 93.146 150.521, 94.145 153.399, 95.653 156.628 C 98.218 162.117, 111.376 177, 113.666 177 C 114.815 177, 125 153.134, 125 150.441 C 125 145.541, 121.285 145.101, 104.229 147.977 M 160.637 147.849 C 159.025 149.630, 159.203 150.360, 164.114 162.113 C 166.960 168.926, 169.620 174.873, 170.024 175.329 C 171.335 176.809, 183.543 164.334, 186.844 158.141 C 188.580 154.885, 190 151.792, 190 151.268 C 190 150.745, 184.488 149.532, 177.750 148.573 C 171.012 147.613, 164.788 146.636, 163.918 146.400 C 163.048 146.164, 161.571 146.816, 160.637 147.849 M 138.210 159.750 C 134.220 165.448, 125.954 181.854, 126.808 182.381 C 127.297 182.684, 130.916 183.463, 134.849 184.112 C 140.347 185.020, 143.653 185.020, 149.151 184.112 C 153.084 183.463, 156.703 182.684, 157.192 182.381 C 158.046 181.854, 149.780 165.448, 145.790 159.750 C 144.730 158.238, 143.025 157, 142 157 C 140.975 157, 139.270 158.238, 138.210 159.750" stroke="none" fill="#f4c45c" fill-rule="evenodd"/></svg>