<svg width="23" height="23" viewBox="0 0 23 23" fill="none" xmlns="http://www.w3.org/2000/svg">
<path d="M14.3281 3.7275C14.1313 3.80188 14 3.99 14 4.2C14 4.41 14.1313 4.59813 14.3281 4.6725L16.8 5.6L17.7275 8.07188C17.8019 8.26875 17.99 8.4 18.2 8.4C18.41 8.4 18.5981 8.26875 18.6725 8.07188L19.6 5.6L22.0719 4.6725C22.2688 4.59813 22.4 4.41 22.4 4.2C22.4 3.99 22.2688 3.80188 22.0719 3.7275L19.6 2.8L18.6725 0.328125C18.5981 0.13125 18.41 0 18.2 0C17.99 0 17.8019 0.13125 17.7275 0.328125L16.8 2.8L14.3281 3.7275ZM8.97313 3.20688C8.85938 2.9575 8.61 2.8 8.33875 2.8C8.0675 2.8 7.81813 2.9575 7.70438 3.20688L5.39438 8.19438L0.406875 10.5C0.1575 10.6138 0 10.8631 0 11.1388C0 11.4144 0.1575 11.6594 0.406875 11.7731L5.39875 14.0788L7.7 19.0663C7.81375 19.3156 8.06313 19.4731 8.33438 19.4731C8.60563 19.4731 8.855 19.3156 8.96875 19.0663L11.2744 14.0744L16.2663 11.7688C16.5156 11.655 16.6731 11.4056 16.6731 11.1344C16.6731 10.8631 16.5156 10.6138 16.2663 10.5L11.2788 8.19875L8.97313 3.20688ZM16.8 16.8L14.3281 17.7275C14.1313 17.8019 14 17.99 14 18.2C14 18.41 14.1313 18.5981 14.3281 18.6725L16.8 19.6L17.7275 22.0719C17.8019 22.2688 17.99 22.4 18.2 22.4C18.41 22.4 18.5981 22.2688 18.6725 22.0719L19.6 19.6L22.0719 18.6725C22.2688 18.5981 22.4 18.41 22.4 18.2C22.4 17.99 22.2688 17.8019 22.0719 17.7275L19.6 16.8L18.6725 14.3281C18.5981 14.1313 18.41 14 18.2 14C17.99 14 17.8019 14.1313 17.7275 14.3281L16.8 16.8Z" fill="#F7C15C"/>
</svg>
