<svg xmlns="http://www.w3.org/2000/svg" width="288" height="264" viewBox="0 0 288 264" version="1.1"><path d="M 204 135.500 L 204 248 234 248 L 264 248 264 135.500 L 264 23 234 23 L 204 23 204 135.500 M 218 136 L 218 234 234 234 L 250 234 250 136 L 250 38 234 38 L 218 38 218 136 M 114 176.500 L 114 248 144.500 248 L 175 248 175 176.500 L 175 105 144.500 105 L 114 105 114 176.500 M 128.242 176.750 L 128.500 233.500 144.250 233.775 L 160 234.051 160 177.025 L 160 120 143.992 120 L 127.983 120 128.242 176.750 M 24 200 L 24 248 54.500 248 L 85 248 85 200 L 85 152 54.500 152 L 24 152 24 200 M 38 200.500 L 38 234 54.500 234 L 71 234 71 200.500 L 71 167 54.500 167 L 38 167 38 200.500" stroke="none" fill="#f4c45d" fill-rule="evenodd"/></svg>