<svg xmlns="http://www.w3.org/2000/svg" width="248" height="246" viewBox="0 0 248 246" version="1.1"><path d="M 99.500 24.457 C 87.950 31.191, 68.150 42.685, 55.500 50 C 42.850 57.316, 31.487 64.211, 30.250 65.325 C 27.730 67.591, 27.226 72.600, 29.250 75.262 C 29.938 76.166, 47.825 86.868, 69 99.044 C 90.175 111.219, 109.412 122.285, 111.750 123.633 L 116 126.084 116 145.649 C 116 162.763, 115.809 165.141, 114.477 164.629 C 113.639 164.308, 102.276 157.894, 89.227 150.376 C 76.177 142.859, 56.629 131.598, 45.788 125.354 C 34.946 119.109, 25.833 114, 25.538 114 C 25.242 114, 25 128.348, 25 145.884 L 25 177.769 70.750 204.247 C 95.913 218.810, 117.540 231.267, 118.812 231.931 C 120.912 233.026, 123.510 231.747, 147.312 217.899 C 161.715 209.518, 182.500 197.490, 193.500 191.169 C 204.500 184.849, 214.287 179.006, 215.250 178.184 C 216.876 176.796, 217 172.899, 217 123.036 C 217 81.596, 216.715 69.034, 215.750 67.852 C 214.862 66.765, 125.760 14.663, 121 12.447 C 120.725 12.319, 111.050 17.723, 99.500 24.457 M 116.500 26.898 C 114.850 27.923, 97.377 38.115, 77.672 49.547 C 54.254 63.133, 42.304 70.598, 43.172 71.097 C 43.902 71.517, 51.391 75.886, 59.814 80.805 L 75.127 89.750 97.183 77.375 C 109.314 70.569, 119.915 65, 120.741 65 C 122.340 65, 167.299 90.240, 170.250 92.795 C 171.841 94.172, 172 96.924, 172 123.091 L 172 151.872 161.250 158.278 C 155.338 161.801, 143.877 168.585, 135.782 173.353 L 121.063 182.023 110.282 175.680 C 104.352 172.191, 92.525 165.295, 84 160.355 C 75.475 155.415, 61.669 147.409, 53.321 142.564 C 44.973 137.720, 37.864 133.811, 37.523 133.878 C 36.601 134.060, 36.775 171.180, 37.702 172.070 C 39.358 173.658, 119.552 220.292, 120.663 220.312 C 121.303 220.324, 140.770 209.355, 163.922 195.938 L 206.019 171.543 205.759 122.580 L 205.500 73.617 187.500 63.184 C 177.600 57.446, 158.758 46.508, 145.629 38.876 C 132.500 31.244, 121.250 25.008, 120.629 25.017 C 120.008 25.026, 118.150 25.872, 116.500 26.898 M 103.504 86.005 C 94.707 90.937, 87.393 95.320, 87.252 95.744 C 86.942 96.675, 86.743 96.550, 105.654 107.400 L 120.802 116.091 136.151 107.602 C 144.593 102.933, 152.328 98.501, 153.341 97.753 C 155.012 96.520, 153.638 95.496, 138.505 86.697 C 129.333 81.364, 121.304 77.008, 120.664 77.018 C 120.024 77.028, 112.302 81.072, 103.504 86.005 M 152.500 110.577 C 148.100 113.110, 140.520 117.467, 135.655 120.258 C 130.790 123.050, 126.617 125.834, 126.382 126.446 C 126.147 127.058, 126.078 136.197, 126.228 146.754 L 126.500 165.949 142.892 156.533 C 151.907 151.354, 159.679 146.721, 160.163 146.237 C 160.647 145.753, 160.921 136.495, 160.772 125.664 L 160.500 105.971 152.500 110.577" stroke="none" fill="#f4c560" fill-rule="evenodd"/></svg>