<svg xmlns="http://www.w3.org/2000/svg" width="280" height="246" viewBox="0 0 280 246" version="1.1"><path d="M 135.062 72.089 C 72.672 89.649, 20.584 104.698, 19.312 105.531 C 16.060 107.662, 16.022 114.334, 19.250 116.379 C 20.487 117.162, 39.481 123.491, 61.458 130.443 C 83.435 137.395, 101.572 143.239, 101.763 143.430 C 101.954 143.621, 100.711 156.252, 99 171.498 C 97.289 186.745, 96.027 200.618, 96.195 202.328 C 96.561 206.061, 100.383 208.645, 104.069 207.653 C 105.406 207.294, 112.575 202.280, 120 196.512 C 127.425 190.744, 133.936 186.164, 134.469 186.335 C 135.002 186.506, 141.318 194.713, 148.504 204.573 C 160.412 220.912, 161.860 222.528, 164.850 222.818 C 166.654 222.993, 168.768 222.608, 169.547 221.961 C 172.094 219.847, 257 49.879, 257 46.894 C 257 43.603, 253.560 39.963, 250.561 40.081 C 249.428 40.125, 197.453 54.529, 135.062 72.089 M 126.774 89.322 C 84.574 101.491, 50.599 111.745, 51.274 112.108 C 54.345 113.764, 108.352 130.079, 109.414 129.672 C 110.398 129.294, 203.580 68.491, 204.917 67.354 C 205.854 66.557, 200.431 68.082, 126.774 89.322 M 192.500 93.219 C 171.600 106.928, 146.770 123.204, 137.321 129.389 L 120.143 140.635 141.631 170.567 C 153.450 187.030, 163.430 200.604, 163.810 200.731 C 164.538 200.975, 231.453 69.074, 230.851 68.581 C 230.658 68.424, 213.400 79.511, 192.500 93.219 M 114.592 162.120 C 114.025 165.618, 112.008 182.893, 112.003 184.293 C 112.001 184.729, 115.118 182.567, 118.928 179.488 L 125.857 173.891 121.262 167.195 C 115.075 158.178, 115.213 158.283, 114.592 162.120" stroke="none" fill="#f4c45d" fill-rule="evenodd"/></svg>