<svg xmlns="http://www.w3.org/2000/svg" width="288" height="278" viewBox="0 0 288 278" version="1.1"><path d="M 184.156 19.030 C 175.814 20.173, 166.495 23.335, 158.213 27.833 C 150.061 32.260, 134.995 46.950, 130.179 55.165 C 122.392 68.451, 119.010 85.487, 120.929 101.759 C 121.967 110.564, 121.913 111.524, 120.282 113.064 C 119.302 113.990, 100.725 129.763, 79 148.117 C 57.275 166.470, 38.459 182.615, 37.187 183.993 C 35.915 185.372, 33.227 189.870, 31.213 193.988 C 27.928 200.707, 27.512 202.466, 27.165 211.101 C 26.738 221.741, 28.353 229.333, 32.576 236.540 C 36.561 243.339, 44.911 250.828, 52.947 254.810 C 60.188 258.398, 60.699 258.499, 71.447 258.479 C 83.701 258.456, 90.028 256.660, 97.874 250.976 C 100.120 249.349, 118.003 229.226, 137.614 206.259 C 157.225 183.292, 173.548 164.185, 173.886 163.799 C 174.225 163.414, 176.301 163.530, 178.501 164.058 C 180.700 164.586, 187.450 165.028, 193.500 165.040 C 205.064 165.064, 211.777 163.785, 222.208 159.572 C 240.101 152.345, 257.358 133.653, 263.699 114.631 C 266.135 107.324, 266.414 105.030, 266.455 92 C 266.493 79.752, 266.134 76.180, 264.145 69 C 262.850 64.325, 261.615 60.316, 261.402 60.090 C 261.188 59.865, 254.598 65.954, 246.757 73.622 C 238.916 81.290, 230.700 88.439, 228.500 89.507 C 222.963 92.196, 212.902 92.081, 207.500 89.267 C 195.850 83.198, 190.857 69.202, 196.263 57.768 C 197.646 54.842, 203.760 47.513, 212.282 38.565 L 226.064 24.094 222.282 23.083 C 206.655 18.906, 194.493 17.613, 184.156 19.030 M 185.951 35.061 C 169.532 37.478, 153.555 48.445, 144.518 63.500 C 136.522 76.820, 134.482 93.051, 138.862 108.496 L 141.129 116.492 138.799 118.496 C 137.517 119.598, 117.182 136.894, 93.610 156.930 C 70.038 176.967, 49.522 195.058, 48.019 197.133 C 42.441 204.833, 41.452 218.085, 45.817 226.642 C 50.961 236.725, 63.351 243.716, 74.446 242.796 C 85.641 241.868, 85.716 241.797, 128.249 192.112 C 149.724 167.025, 167.646 146.105, 168.076 145.621 C 168.517 145.126, 172.297 145.671, 176.747 146.871 C 185.402 149.207, 197.170 149.660, 206.114 148.001 C 220.631 145.309, 238.194 131.694, 244.814 118 C 248.345 110.697, 251 101.307, 251 96.123 L 251 92.667 247.441 96.225 C 235.913 107.754, 215.015 111.124, 200.339 103.821 C 185.354 96.364, 177.356 82.345, 178.186 64.990 C 178.670 54.873, 182.146 46.395, 188.945 38.750 C 191.269 36.138, 192.794 34.055, 192.335 34.122 C 191.876 34.189, 189.003 34.612, 185.951 35.061 M 62.252 194.104 C 53.894 198.241, 49.569 205.894, 50.179 215.467 C 50.693 223.550, 54.836 229.743, 62.176 233.400 C 71.238 237.916, 79.821 236.450, 87.145 229.135 C 92.440 223.846, 94.549 218.020, 93.620 211.243 C 91.599 196.498, 75.350 187.621, 62.252 194.104 M 68.250 209.524 C 65.369 211.559, 65.361 215.326, 68.231 218 C 71.083 220.657, 73.755 220.232, 76.379 216.704 C 78.298 214.125, 78.342 213.699, 76.948 211.204 C 75.150 207.987, 71.440 207.270, 68.250 209.524" stroke="none" fill="#f4c45d" fill-rule="evenodd"/></svg>